<svg xmlns="http://www.w3.org/2000/svg" width="1850" height="1039.5" viewBox="0 0 1850 1039.5"><g transform="translate(-2030 1306)"><rect width="30" height="30" transform="translate(2030 -1295)" fill="#f5eded"/><rect width="30" height="30" transform="translate(2550 -1306)" fill="#f5eded"/><rect width="30" height="30" transform="translate(2082 -498.625)" fill="#f5eded"/><rect width="30" height="30" transform="translate(2602 -509.625)" fill="#f5eded"/><rect width="30" height="30" transform="translate(3070 -509.625)" fill="#f5eded"/><rect width="30" height="30" transform="translate(2134 -947.67)" fill="#f5eded"/><rect width="30" height="30" transform="translate(2654 -958.67)" fill="#f5eded"/><rect width="30" height="30" transform="translate(3122 -958.67)" fill="#f5eded"/><rect width="30" height="30" transform="translate(2186 -924)" fill="#f5eded"/><rect width="30" height="30" transform="translate(2706 -935)" fill="#f5eded"/><rect width="30" height="30" transform="translate(3174 -935)" fill="#f5eded"/><rect width="30" height="30" transform="translate(3486 -935)" fill="#f5eded"/><rect width="30" height="30" transform="translate(2238 -924)" fill="#f5eded"/><rect width="30" height="30" transform="translate(2758 -935)" fill="#f5eded"/><rect width="30" height="30" transform="translate(3226 -935)" fill="#f5eded"/><rect width="30" height="30" transform="translate(3538 -935)" fill="#f5eded"/><rect width="30" height="30" transform="translate(2290 -1295)" fill="#f5eded"/><rect width="30" height="30" transform="translate(2810 -1306)" fill="#f5eded"/><rect width="30" height="30" transform="translate(3278 -1306)" fill="#f5eded"/><rect width="30" height="30" transform="translate(3590 -1306)" fill="#f5eded"/><rect width="30" height="30" transform="translate(2342 -1222.38)" fill="#f5eded"/><rect width="30" height="30" transform="translate(2862 -1233.38)" fill="#f5eded"/><rect width="30" height="30" transform="translate(3330 -1233.38)" fill="#f5eded"/><rect width="30" height="30" transform="translate(3642 -1233.38)" fill="#f5eded"/><rect width="30" height="30" transform="translate(2394 -742.5)" fill="#f5eded"/><rect width="30" height="30" transform="translate(2914 -753.5)" fill="#f5eded"/><rect width="30" height="30" transform="translate(3382 -753.5)" fill="#f5eded"/><rect width="30" height="30" transform="translate(3694 -753.5)" fill="#f5eded"/><rect width="30" height="30" transform="translate(2446 -1255.5)" fill="#f5eded"/><rect width="30" height="30" transform="translate(2966 -1266.5)" fill="#f5eded"/><rect width="30" height="30" transform="translate(3434 -1266.5)" fill="#f5eded"/><rect width="30" height="30" transform="translate(3746 -1266.5)" fill="#f5eded"/><rect width="30" height="30" transform="translate(2498 -1021)" fill="#f5eded"/><rect width="30" height="30" transform="translate(3018 -1032)" fill="#f5eded"/><rect width="30" height="30" transform="translate(3486 -1032)" fill="#f5eded"/><rect width="30" height="30" transform="translate(3798 -1032)" fill="#f5eded"/><rect width="30" height="30" transform="translate(3850 -1151.721)" fill="#f5eded"/><line y2="989" transform="translate(2045.5 -1255.5)" fill="none" stroke="#e3d9d9" stroke-width="1"/><line y2="989" transform="translate(2565.5 -1266.5)" fill="none" stroke="#e3d9d9" stroke-width="1"/><line y2="192.625" transform="translate(2097.5 -459.125)" fill="none" stroke="#e3d9d9" stroke-width="1"/><line y2="192.625" transform="translate(2617.5 -470.125)" fill="none" stroke="#e3d9d9" stroke-width="1"/><line y2="192.625" transform="translate(3085.5 -470.125)" fill="none" stroke="#e3d9d9" stroke-width="1"/><line y2="641.67" transform="translate(2149.5 -908.17)" fill="none" stroke="#e3d9d9" stroke-width="1"/><line y2="641.67" transform="translate(2669.5 -919.17)" fill="none" stroke="#e3d9d9" stroke-width="1"/><line y2="641.67" transform="translate(3137.5 -919.17)" fill="none" stroke="#e3d9d9" stroke-width="1"/><line y2="618" transform="translate(2201.5 -884.5)" fill="none" stroke="#e3d9d9" stroke-width="1"/><line y2="618" transform="translate(2721.5 -895.5)" fill="none" stroke="#e3d9d9" stroke-width="1"/><line y2="618" transform="translate(3189.5 -895.5)" fill="none" stroke="#e3d9d9" stroke-width="1"/><line y2="618" transform="translate(3501.5 -895.5)" fill="none" stroke="#e3d9d9" stroke-width="1"/><line y2="618" transform="translate(2253.5 -884.5)" fill="none" stroke="#e3d9d9" stroke-width="1"/><line y2="618" transform="translate(2773.5 -895.5)" fill="none" stroke="#e3d9d9" stroke-width="1"/><line y2="618" transform="translate(3241.5 -895.5)" fill="none" stroke="#e3d9d9" stroke-width="1"/><line y2="618" transform="translate(3553.5 -895.5)" fill="none" stroke="#e3d9d9" stroke-width="1"/><line y2="989" transform="translate(2305.5 -1255.5)" fill="none" stroke="#e3d9d9" stroke-width="1"/><line y2="989" transform="translate(2825.5 -1266.5)" fill="none" stroke="#e3d9d9" stroke-width="1"/><line y2="989" transform="translate(3293.5 -1266.5)" fill="none" stroke="#e3d9d9" stroke-width="1"/><line y2="989" transform="translate(3605.5 -1266.5)" fill="none" stroke="#e3d9d9" stroke-width="1"/><line y2="916.38" transform="translate(2357.5 -1182.88)" fill="none" stroke="#e3d9d9" stroke-width="1"/><line y2="916.38" transform="translate(2877.5 -1193.88)" fill="none" stroke="#e3d9d9" stroke-width="1"/><line y2="916.38" transform="translate(3345.5 -1193.88)" fill="none" stroke="#e3d9d9" stroke-width="1"/><line y2="916.38" transform="translate(3657.5 -1193.88)" fill="none" stroke="#e3d9d9" stroke-width="1"/><line y2="436.5" transform="translate(2409.5 -703)" fill="none" stroke="#e3d9d9" stroke-width="1"/><line y2="436.5" transform="translate(2929.5 -714)" fill="none" stroke="#e3d9d9" stroke-width="1"/><line y2="436.5" transform="translate(3397.5 -714)" fill="none" stroke="#e3d9d9" stroke-width="1"/><line y2="436.5" transform="translate(3709.5 -714)" fill="none" stroke="#e3d9d9" stroke-width="1"/><line y2="949.5" transform="translate(2461.5 -1216)" fill="none" stroke="#e3d9d9" stroke-width="1"/><line y2="949.5" transform="translate(2981.5 -1227)" fill="none" stroke="#e3d9d9" stroke-width="1"/><line y2="949.5" transform="translate(3449.5 -1227)" fill="none" stroke="#e3d9d9" stroke-width="1"/><line y2="949.5" transform="translate(3761.5 -1227)" fill="none" stroke="#e3d9d9" stroke-width="1"/><line y2="715" transform="translate(2513.5 -981.5)" fill="none" stroke="#e3d9d9" stroke-width="1"/><line y2="715" transform="translate(3033.5 -992.5)" fill="none" stroke="#e3d9d9" stroke-width="1"/><line y2="715" transform="translate(3501.5 -992.5)" fill="none" stroke="#e3d9d9" stroke-width="1"/><line y2="715" transform="translate(3813.5 -992.5)" fill="none" stroke="#e3d9d9" stroke-width="1"/><line y2="834.721" transform="translate(3865.5 -1112.221)" fill="none" stroke="#e3d9d9" stroke-width="1"/></g></svg>