<svg xmlns="http://www.w3.org/2000/svg" width="1850" height="1039.5" viewBox="0 0 1850 1039.5"><g transform="translate(-33 -26)"><rect width="30" height="30" transform="translate(33 37)" fill="#f5eded"/><rect width="30" height="30" transform="translate(553 26)" fill="#f5eded"/><rect width="30" height="30" transform="translate(85 833.375)" fill="#f5eded"/><rect width="30" height="30" transform="translate(605 822.375)" fill="#f5eded"/><rect width="30" height="30" transform="translate(1073 822.375)" fill="#f5eded"/><rect width="30" height="30" transform="translate(137 384.33)" fill="#f5eded"/><rect width="30" height="30" transform="translate(657 373.33)" fill="#f5eded"/><rect width="30" height="30" transform="translate(1125 373.33)" fill="#f5eded"/><rect width="30" height="30" transform="translate(189 408)" fill="#f5eded"/><rect width="30" height="30" transform="translate(709 397)" fill="#f5eded"/><rect width="30" height="30" transform="translate(1177 397)" fill="#f5eded"/><rect width="30" height="30" transform="translate(1489 397)" fill="#f5eded"/><rect width="30" height="30" transform="translate(241 408)" fill="#f5eded"/><rect width="30" height="30" transform="translate(761 397)" fill="#f5eded"/><rect width="30" height="30" transform="translate(1229 397)" fill="#f5eded"/><rect width="30" height="30" transform="translate(1541 397)" fill="#f5eded"/><rect width="30" height="30" transform="translate(293 37)" fill="#f5eded"/><rect width="30" height="30" transform="translate(813 26)" fill="#f5eded"/><rect width="30" height="30" transform="translate(1281 26)" fill="#f5eded"/><rect width="30" height="30" transform="translate(1593 26)" fill="#f5eded"/><rect width="30" height="30" transform="translate(345 109.62)" fill="#f5eded"/><rect width="30" height="30" transform="translate(865 98.62)" fill="#f5eded"/><rect width="30" height="30" transform="translate(1333 98.62)" fill="#f5eded"/><rect width="30" height="30" transform="translate(1645 98.62)" fill="#f5eded"/><rect width="30" height="30" transform="translate(397 589.5)" fill="#f5eded"/><rect width="30" height="30" transform="translate(917 578.5)" fill="#f5eded"/><rect width="30" height="30" transform="translate(1385 578.5)" fill="#f5eded"/><rect width="30" height="30" transform="translate(1697 578.5)" fill="#f5eded"/><rect width="30" height="30" transform="translate(449 76.5)" fill="#f5eded"/><rect width="30" height="30" transform="translate(969 65.5)" fill="#f5eded"/><rect width="30" height="30" transform="translate(1437 65.5)" fill="#f5eded"/><rect width="30" height="30" transform="translate(1749 65.5)" fill="#f5eded"/><rect width="30" height="30" transform="translate(501 311)" fill="#f5eded"/><rect width="30" height="30" transform="translate(1021 300)" fill="#f5eded"/><rect width="30" height="30" transform="translate(1489 300)" fill="#f5eded"/><rect width="30" height="30" transform="translate(1801 300)" fill="#f5eded"/><rect width="30" height="30" transform="translate(1853 180.279)" fill="#f5eded"/><line y2="989" transform="translate(48.5 76.5)" fill="none" stroke="#e3d9d9" stroke-width="1"/><line y2="989" transform="translate(568.5 65.5)" fill="none" stroke="#e3d9d9" stroke-width="1"/><line y2="192.625" transform="translate(100.5 872.875)" fill="none" stroke="#e3d9d9" stroke-width="1"/><line y2="192.625" transform="translate(620.5 861.875)" fill="none" stroke="#e3d9d9" stroke-width="1"/><line y2="192.625" transform="translate(1088.5 861.875)" fill="none" stroke="#e3d9d9" stroke-width="1"/><line y2="641.67" transform="translate(152.5 423.83)" fill="none" stroke="#e3d9d9" stroke-width="1"/><line y2="641.67" transform="translate(672.5 412.83)" fill="none" stroke="#e3d9d9" stroke-width="1"/><line y2="641.67" transform="translate(1140.5 412.83)" fill="none" stroke="#e3d9d9" stroke-width="1"/><line y2="618" transform="translate(204.5 447.5)" fill="none" stroke="#e3d9d9" stroke-width="1"/><line y2="618" transform="translate(724.5 436.5)" fill="none" stroke="#e3d9d9" stroke-width="1"/><line y2="618" transform="translate(1192.5 436.5)" fill="none" stroke="#e3d9d9" stroke-width="1"/><line y2="618" transform="translate(1504.5 436.5)" fill="none" stroke="#e3d9d9" stroke-width="1"/><line y2="618" transform="translate(256.5 447.5)" fill="none" stroke="#e3d9d9" stroke-width="1"/><line y2="618" transform="translate(776.5 436.5)" fill="none" stroke="#e3d9d9" stroke-width="1"/><line y2="618" transform="translate(1244.5 436.5)" fill="none" stroke="#e3d9d9" stroke-width="1"/><line y2="618" transform="translate(1556.5 436.5)" fill="none" stroke="#e3d9d9" stroke-width="1"/><line y2="989" transform="translate(308.5 76.5)" fill="none" stroke="#e3d9d9" stroke-width="1"/><line y2="989" transform="translate(828.5 65.5)" fill="none" stroke="#e3d9d9" stroke-width="1"/><line y2="989" transform="translate(1296.5 65.5)" fill="none" stroke="#e3d9d9" stroke-width="1"/><line y2="989" transform="translate(1608.5 65.5)" fill="none" stroke="#e3d9d9" stroke-width="1"/><line y2="916.38" transform="translate(360.5 149.12)" fill="none" stroke="#e3d9d9" stroke-width="1"/><line y2="916.38" transform="translate(880.5 138.12)" fill="none" stroke="#e3d9d9" stroke-width="1"/><line y2="916.38" transform="translate(1348.5 138.12)" fill="none" stroke="#e3d9d9" stroke-width="1"/><line y2="916.38" transform="translate(1660.5 138.12)" fill="none" stroke="#e3d9d9" stroke-width="1"/><line y2="436.5" transform="translate(412.5 629)" fill="none" stroke="#e3d9d9" stroke-width="1"/><line y2="436.5" transform="translate(932.5 618)" fill="none" stroke="#e3d9d9" stroke-width="1"/><line y2="436.5" transform="translate(1400.5 618)" fill="none" stroke="#e3d9d9" stroke-width="1"/><line y2="436.5" transform="translate(1712.5 618)" fill="none" stroke="#e3d9d9" stroke-width="1"/><line y2="949.5" transform="translate(464.5 116)" fill="none" stroke="#e3d9d9" stroke-width="1"/><line y2="949.5" transform="translate(984.5 105)" fill="none" stroke="#e3d9d9" stroke-width="1"/><line y2="949.5" transform="translate(1452.5 105)" fill="none" stroke="#e3d9d9" stroke-width="1"/><line y2="949.5" transform="translate(1764.5 105)" fill="none" stroke="#e3d9d9" stroke-width="1"/><line y2="715" transform="translate(516.5 350.5)" fill="none" stroke="#e3d9d9" stroke-width="1"/><line y2="715" transform="translate(1036.5 339.5)" fill="none" stroke="#e3d9d9" stroke-width="1"/><line y2="715" transform="translate(1504.5 339.5)" fill="none" stroke="#e3d9d9" stroke-width="1"/><line y2="715" transform="translate(1816.5 339.5)" fill="none" stroke="#e3d9d9" stroke-width="1"/><line y2="834.721" transform="translate(1868.5 219.779)" fill="none" stroke="#e3d9d9" stroke-width="1"/><g transform="translate(316.117 -145.2) rotate(15)"><g transform="translate(102 -220)"><rect width="30" height="30" transform="translate(0 546)" fill="#cebfbf"/></g><g transform="translate(72 -100)"><rect width="30" height="30" transform="translate(0 546)" fill="#cebfbf"/></g><g transform="translate(72 -190)"><rect width="30" height="30" transform="translate(0 546)" fill="#cebfbf"/></g><g transform="translate(72 -70)"><rect width="30" height="30" transform="translate(0 546)" fill="#cebfbf"/></g><g transform="translate(72 -160)"><rect width="30" height="30" transform="translate(0 546)" fill="#cebfbf"/></g><g transform="translate(132 -160)"><rect width="30" height="30" transform="translate(0 546)" fill="#cebfbf"/></g><g transform="translate(132 -250)"><rect width="30" height="30" transform="translate(0 546)" fill="#cebfbf"/></g><g transform="translate(162 -220)"><rect width="30" height="30" transform="translate(0 546)" fill="#cebfbf"/></g><g transform="translate(192 -100)"><rect width="30" height="30" transform="translate(0 546)" fill="#cebfbf"/></g><g transform="translate(192 -190)"><rect width="30" height="30" transform="translate(0 546)" fill="#cebfbf"/></g><g transform="translate(192 -70)"><rect width="30" height="30" transform="translate(0 546)" fill="#cebfbf"/></g><g transform="translate(192 -160)"><rect width="30" height="30" transform="translate(0 546)" fill="#cebfbf"/></g><g transform="translate(192 -40)"><rect width="30" height="30" transform="translate(0 546)" fill="#cebfbf"/></g><g transform="translate(192 -130)"><rect width="30" height="30" transform="translate(0 546)" fill="#cebfbf"/></g><g transform="translate(192 -10)"><rect width="30" height="30" transform="translate(0 546)" fill="#cebfbf"/></g><g transform="translate(192 20)"><rect width="30" height="30" transform="translate(0 546)" fill="#cebfbf"/></g><g transform="translate(192 49)"><rect width="30" height="30" transform="translate(0 546)" fill="#cebfbf"/></g><g transform="translate(192 79)"><rect width="30" height="30" transform="translate(0 546)" fill="#cebfbf"/></g><g transform="translate(192 169)"><rect width="30" height="30" transform="translate(0 546)" fill="#cebfbf"/></g><g transform="translate(72 -40)"><rect width="30" height="30" transform="translate(0 546)" fill="#cebfbf"/></g><g transform="translate(72 -130)"><rect width="30" height="30" transform="translate(0 546)" fill="#cebfbf"/></g><g transform="translate(72 -10)"><rect width="30" height="30" transform="translate(0 546)" fill="#cebfbf"/></g><g transform="translate(72 20)"><rect width="30" height="30" transform="translate(0 546)" fill="#cebfbf"/></g><g transform="translate(72 50)"><rect width="30" height="30" transform="translate(0 546)" fill="#cebfbf"/></g><g transform="translate(72 79)"><rect width="30" height="30" transform="translate(0 546)" fill="#cebfbf"/></g><g transform="translate(72 169)"><rect width="30" height="30" transform="translate(0 546)" fill="#cebfbf"/></g><g transform="translate(72 109)"><rect width="30" height="30" transform="translate(0 546)" fill="#cebfbf"/></g><g transform="translate(72 199)"><rect width="30" height="30" transform="translate(0 546)" fill="#cebfbf"/></g><g transform="translate(72 139)"><rect width="30" height="30" transform="translate(0 546)" fill="#cebfbf"/></g><g transform="translate(72 229)"><rect width="30" height="30" transform="translate(0 546)" fill="#cebfbf"/></g><g transform="translate(72 259)"><rect width="30" height="30" transform="translate(0 546)" fill="#cebfbf"/></g><g transform="translate(42 259)"><rect width="30" height="30" transform="translate(0 546)" fill="#cebfbf"/></g><g transform="translate(12 259)"><rect width="30" height="30" transform="translate(0 546)" fill="#cebfbf"/></g><g transform="translate(12 289)"><rect width="30" height="30" transform="translate(0 546)" fill="#cebfbf"/></g><g transform="translate(12 319)"><rect width="30" height="30" transform="translate(0 546)" fill="#cebfbf"/></g><g transform="translate(42 319)"><rect width="30" height="30" transform="translate(0 546)" fill="#cebfbf"/></g><g transform="translate(72 319)"><rect width="30" height="30" transform="translate(0 546)" fill="#cebfbf"/></g><g transform="translate(102 319)"><rect width="30" height="30" transform="translate(0 546)" fill="#cebfbf"/></g><g transform="translate(132 319)"><rect width="30" height="30" transform="translate(0 546)" fill="#cebfbf"/></g><g transform="translate(162 319)"><rect width="30" height="30" transform="translate(0 546)" fill="#cebfbf"/></g><g transform="translate(192 319)"><rect width="30" height="30" transform="translate(0 546)" fill="#cebfbf"/></g><g transform="translate(222 319)"><rect width="30" height="30" transform="translate(0 546)" fill="#cebfbf"/></g><g transform="translate(252 319)"><rect width="30" height="30" transform="translate(0 546)" fill="#cebfbf"/></g><g transform="translate(252 289)"><rect width="30" height="30" transform="translate(0 546)" fill="#cebfbf"/></g><g transform="translate(102 259)"><rect width="30" height="30" transform="translate(0 546)" fill="#cebfbf"/></g><g transform="translate(132 259)"><rect width="30" height="30" transform="translate(0 546)" fill="#cebfbf"/></g><g transform="translate(162 259)"><rect width="30" height="30" transform="translate(0 546)" fill="#cebfbf"/></g><g transform="translate(132 229)"><rect width="30" height="30" transform="translate(0 546)" fill="#cebfbf"/></g><g transform="translate(102 349)"><rect width="30" height="30" transform="translate(0 546)" fill="#cebfbf"/></g><g transform="translate(102 379)"><rect width="30" height="30" transform="translate(0 546)" fill="#cebfbf"/></g><g transform="translate(102 409)"><rect width="30" height="30" transform="translate(0 546)" fill="#cebfbf"/></g><g transform="translate(72 439)"><rect width="30" height="30" transform="translate(0 546)" fill="#cebfbf"/></g><g transform="translate(102 469)"><rect width="30" height="30" transform="translate(0 546)" fill="#cebfbf"/></g><g transform="translate(132 469)"><rect width="30" height="30" transform="translate(0 546)" fill="#cebfbf"/></g><g transform="translate(162 469)"><rect width="30" height="30" transform="translate(0 546)" fill="#cebfbf"/></g><g transform="translate(192 439)"><rect width="30" height="30" transform="translate(0 546)" fill="#cebfbf"/></g><g transform="translate(132 439)"><rect width="30" height="30" transform="translate(0 546)" fill="#cebfbf"/></g><g transform="translate(162 409)"><rect width="30" height="30" transform="translate(0 546)" fill="#cebfbf"/></g><g transform="translate(162 349)"><rect width="30" height="30" transform="translate(0 546)" fill="#cebfbf"/></g><g transform="translate(162 379)"><rect width="30" height="30" transform="translate(0 546)" fill="#cebfbf"/></g><g transform="translate(132 199)"><rect width="30" height="30" transform="translate(0 546)" fill="#cebfbf"/></g><g transform="translate(130 20)"><rect width="30" height="30" transform="translate(0 546)" fill="#cebfbf"/></g><g transform="translate(130 49)"><rect width="30" height="30" transform="translate(0 546)" fill="#cebfbf"/></g><g transform="translate(130 79)"><rect width="30" height="30" transform="translate(0 546)" fill="#cebfbf"/></g><g transform="translate(132 -220)"><rect width="30" height="30" transform="translate(0 546)" fill="#cebfbf"/></g><g transform="translate(132 -190)"><rect width="30" height="30" transform="translate(0 546)" fill="#cebfbf"/></g><g transform="translate(132 -160)"><rect width="30" height="30" transform="translate(0 546)" fill="#cebfbf"/></g><g transform="translate(192 259)"><rect width="30" height="30" transform="translate(0 546)" fill="#cebfbf"/></g><g transform="translate(222 259)"><rect width="30" height="30" transform="translate(0 546)" fill="#cebfbf"/></g><g transform="translate(252 259)"><rect width="30" height="30" transform="translate(0 546)" fill="#cebfbf"/></g><g transform="translate(192 109)"><rect width="30" height="30" transform="translate(0 546)" fill="#cebfbf"/></g><g transform="translate(192 199)"><rect width="30" height="30" transform="translate(0 546)" fill="#cebfbf"/></g><g transform="translate(192 139)"><rect width="30" height="30" transform="translate(0 546)" fill="#cebfbf"/></g><g transform="translate(192 229)"><rect width="30" height="30" transform="translate(0 546)" fill="#cebfbf"/></g><g transform="translate(102 -220)"><rect width="30" height="30" transform="translate(0 546)" fill="#cebfbf"/></g></g><g transform="translate(1319.041 -69.107) rotate(-15)"><g transform="translate(102 -220)"><rect width="30" height="30" transform="translate(0 546)" fill="#cebfbf"/></g><g transform="translate(72 -100)"><rect width="30" height="30" transform="translate(0 546)" fill="#cebfbf"/></g><g transform="translate(72 -190)"><rect width="30" height="30" transform="translate(0 546)" fill="#cebfbf"/></g><g transform="translate(72 -70)"><rect width="30" height="30" transform="translate(0 546)" fill="#cebfbf"/></g><g transform="translate(72 -160)"><rect width="30" height="30" transform="translate(0 546)" fill="#cebfbf"/></g><g transform="translate(132 -160)"><rect width="30" height="30" transform="translate(0 546)" fill="#cebfbf"/></g><g transform="translate(132 -250)"><rect width="30" height="30" transform="translate(0 546)" fill="#cebfbf"/></g><g transform="translate(162 -220)"><rect width="30" height="30" transform="translate(0 546)" fill="#cebfbf"/></g><g transform="translate(192 -100)"><rect width="30" height="30" transform="translate(0 546)" fill="#cebfbf"/></g><g transform="translate(192 -190)"><rect width="30" height="30" transform="translate(0 546)" fill="#cebfbf"/></g><g transform="translate(192 -70)"><rect width="30" height="30" transform="translate(0 546)" fill="#cebfbf"/></g><g transform="translate(192 -160)"><rect width="30" height="30" transform="translate(0 546)" fill="#cebfbf"/></g><g transform="translate(192 -40)"><rect width="30" height="30" transform="translate(0 546)" fill="#cebfbf"/></g><g transform="translate(192 -130)"><rect width="30" height="30" transform="translate(0 546)" fill="#cebfbf"/></g><g transform="translate(192 -10)"><rect width="30" height="30" transform="translate(0 546)" fill="#cebfbf"/></g><g transform="translate(192 20)"><rect width="30" height="30" transform="translate(0 546)" fill="#cebfbf"/></g><g transform="translate(192 49)"><rect width="30" height="30" transform="translate(0 546)" fill="#cebfbf"/></g><g transform="translate(192 79)"><rect width="30" height="30" transform="translate(0 546)" fill="#cebfbf"/></g><g transform="translate(192 169)"><rect width="30" height="30" transform="translate(0 546)" fill="#cebfbf"/></g><g transform="translate(72 -40)"><rect width="30" height="30" transform="translate(0 546)" fill="#cebfbf"/></g><g transform="translate(72 -130)"><rect width="30" height="30" transform="translate(0 546)" fill="#cebfbf"/></g><g transform="translate(72 -10)"><rect width="30" height="30" transform="translate(0 546)" fill="#cebfbf"/></g><g transform="translate(72 20)"><rect width="30" height="30" transform="translate(0 546)" fill="#cebfbf"/></g><g transform="translate(72 50)"><rect width="30" height="30" transform="translate(0 546)" fill="#cebfbf"/></g><g transform="translate(72 79)"><rect width="30" height="30" transform="translate(0 546)" fill="#cebfbf"/></g><g transform="translate(72 169)"><rect width="30" height="30" transform="translate(0 546)" fill="#cebfbf"/></g><g transform="translate(72 109)"><rect width="30" height="30" transform="translate(0 546)" fill="#cebfbf"/></g><g transform="translate(72 199)"><rect width="30" height="30" transform="translate(0 546)" fill="#cebfbf"/></g><g transform="translate(72 139)"><rect width="30" height="30" transform="translate(0 546)" fill="#cebfbf"/></g><g transform="translate(72 229)"><rect width="30" height="30" transform="translate(0 546)" fill="#cebfbf"/></g><g transform="translate(72 259)"><rect width="30" height="30" transform="translate(0 546)" fill="#cebfbf"/></g><g transform="translate(42 259)"><rect width="30" height="30" transform="translate(0 546)" fill="#cebfbf"/></g><g transform="translate(12 259)"><rect width="30" height="30" transform="translate(0 546)" fill="#cebfbf"/></g><g transform="translate(12 289)"><rect width="30" height="30" transform="translate(0 546)" fill="#cebfbf"/></g><g transform="translate(12 319)"><rect width="30" height="30" transform="translate(0 546)" fill="#cebfbf"/></g><g transform="translate(42 319)"><rect width="30" height="30" transform="translate(0 546)" fill="#cebfbf"/></g><g transform="translate(72 319)"><rect width="30" height="30" transform="translate(0 546)" fill="#cebfbf"/></g><g transform="translate(102 319)"><rect width="30" height="30" transform="translate(0 546)" fill="#cebfbf"/></g><g transform="translate(132 319)"><rect width="30" height="30" transform="translate(0 546)" fill="#cebfbf"/></g><g transform="translate(162 319)"><rect width="30" height="30" transform="translate(0 546)" fill="#cebfbf"/></g><g transform="translate(192 319)"><rect width="30" height="30" transform="translate(0 546)" fill="#cebfbf"/></g><g transform="translate(222 319)"><rect width="30" height="30" transform="translate(0 546)" fill="#cebfbf"/></g><g transform="translate(252 319)"><rect width="30" height="30" transform="translate(0 546)" fill="#cebfbf"/></g><g transform="translate(252 289)"><rect width="30" height="30" transform="translate(0 546)" fill="#cebfbf"/></g><g transform="translate(102 259)"><rect width="30" height="30" transform="translate(0 546)" fill="#cebfbf"/></g><g transform="translate(132 259)"><rect width="30" height="30" transform="translate(0 546)" fill="#cebfbf"/></g><g transform="translate(162 259)"><rect width="30" height="30" transform="translate(0 546)" fill="#cebfbf"/></g><g transform="translate(132 229)"><rect width="30" height="30" transform="translate(0 546)" fill="#cebfbf"/></g><g transform="translate(102 349)"><rect width="30" height="30" transform="translate(0 546)" fill="#cebfbf"/></g><g transform="translate(102 379)"><rect width="30" height="30" transform="translate(0 546)" fill="#cebfbf"/></g><g transform="translate(102 409)"><rect width="30" height="30" transform="translate(0 546)" fill="#cebfbf"/></g><g transform="translate(72 439)"><rect width="30" height="30" transform="translate(0 546)" fill="#cebfbf"/></g><g transform="translate(102 469)"><rect width="30" height="30" transform="translate(0 546)" fill="#cebfbf"/></g><g transform="translate(132 469)"><rect width="30" height="30" transform="translate(0 546)" fill="#cebfbf"/></g><g transform="translate(162 469)"><rect width="30" height="30" transform="translate(0 546)" fill="#cebfbf"/></g><g transform="translate(192 439)"><rect width="30" height="30" transform="translate(0 546)" fill="#cebfbf"/></g><g transform="translate(132 439)"><rect width="30" height="30" transform="translate(0 546)" fill="#cebfbf"/></g><g transform="translate(162 409)"><rect width="30" height="30" transform="translate(0 546)" fill="#cebfbf"/></g><g transform="translate(162 349)"><rect width="30" height="30" transform="translate(0 546)" fill="#cebfbf"/></g><g transform="translate(162 379)"><rect width="30" height="30" transform="translate(0 546)" fill="#cebfbf"/></g><g transform="translate(132 199)"><rect width="30" height="30" transform="translate(0 546)" fill="#cebfbf"/></g><g transform="translate(130 20)"><rect width="30" height="30" transform="translate(0 546)" fill="#cebfbf"/></g><g transform="translate(130 49)"><rect width="30" height="30" transform="translate(0 546)" fill="#cebfbf"/></g><g transform="translate(130 79)"><rect width="30" height="30" transform="translate(0 546)" fill="#cebfbf"/></g><g transform="translate(132 -220)"><rect width="30" height="30" transform="translate(0 546)" fill="#cebfbf"/></g><g transform="translate(132 -190)"><rect width="30" height="30" transform="translate(0 546)" fill="#cebfbf"/></g><g transform="translate(132 -160)"><rect width="30" height="30" transform="translate(0 546)" fill="#cebfbf"/></g><g transform="translate(192 259)"><rect width="30" height="30" transform="translate(0 546)" fill="#cebfbf"/></g><g transform="translate(222 259)"><rect width="30" height="30" transform="translate(0 546)" fill="#cebfbf"/></g><g transform="translate(252 259)"><rect width="30" height="30" transform="translate(0 546)" fill="#cebfbf"/></g><g transform="translate(192 109)"><rect width="30" height="30" transform="translate(0 546)" fill="#cebfbf"/></g><g transform="translate(192 199)"><rect width="30" height="30" transform="translate(0 546)" fill="#cebfbf"/></g><g transform="translate(192 139)"><rect width="30" height="30" transform="translate(0 546)" fill="#cebfbf"/></g><g transform="translate(192 229)"><rect width="30" height="30" transform="translate(0 546)" fill="#cebfbf"/></g></g></g></svg>