<svg xmlns="http://www.w3.org/2000/svg" width="646" height="379" viewBox="0 0 646 379"><g transform="translate(-637 -425)"><path d="M1053,769l10.109,2.6" transform="translate(9 8)" fill="#fff"/><g transform="translate(0 20)"><g transform="translate(637 405)" fill="#fff" stroke="#707070" stroke-linecap="round" stroke-width="5"><rect width="646" height="349" rx="27" stroke="none"/><rect x="2.5" y="2.5" width="641" height="344" rx="24.5" fill="none"/></g><rect width="185" height="18" transform="translate(868 751)" fill="#707070"/><rect width="185" height="18" transform="translate(868 766)" fill="#707070"/></g><path d="M1053,784V768.023L1068.977,784" transform="translate(-2 20)" fill="#707070"/><path d="M1068.977,784V768.023L1053,784" transform="translate(-199.023 20)" fill="#707070"/><rect width="161" height="50" transform="translate(689 476)" fill="#e4e4e4"/><rect width="161" height="28" transform="translate(689 594)" fill="#e4e4e4"/><g transform="translate(689 476)" fill="none" stroke="#707070" stroke-linecap="round" stroke-width="1"><rect width="161" height="146" stroke="none"/><rect x="0.5" y="0.5" width="160" height="145" fill="none"/></g><circle cx="11" cy="11" r="11" transform="translate(759 485)" fill="#c1bfbf"/><circle cx="8" cy="8" r="8" transform="translate(697 600)" fill="#c1bfbf"/><circle cx="8" cy="8" r="8" transform="translate(777 600)" fill="#c1bfbf"/><circle cx="13" cy="13" r="13" transform="translate(707 539)" fill="#e4e4e4"/><rect width="100" height="5" rx="2.5" transform="translate(720 511)" fill="#c1bfbf"/><rect width="43" height="5" rx="2.5" transform="translate(699 569)" fill="#e4e4e4"/><rect width="43" height="5" rx="2.5" transform="translate(774 538)" fill="#e4e4e4"/><rect width="43" height="5" rx="2.5" transform="translate(774 567)" fill="#e4e4e4"/><rect width="64" height="14" rx="6" transform="translate(774 548)" fill="#e4e4e4"/><rect width="64" height="6" rx="3" transform="translate(774 577)" fill="#e4e4e4"/><rect width="43" height="5" rx="2.5" transform="translate(699 578)" fill="#e4e4e4"/><rect width="43" height="5" rx="2.5" transform="translate(719 606)" fill="#c1bfbf"/><rect width="43" height="5" rx="2.5" transform="translate(799 606)" fill="#c1bfbf"/><rect width="32" height="6" rx="3" transform="translate(774 577)" fill="#b686fe"/><line x2="160" transform="translate(689.5 594.5)" fill="none" stroke="#707070" stroke-width="1"/><line y2="27" transform="translate(769.5 594.5)" fill="none" stroke="#707070" stroke-width="1"/><g transform="translate(871 476)" fill="#fff" stroke="#707070" stroke-width="1"><rect width="357" height="86" stroke="none"/><rect x="0.5" y="0.5" width="356" height="85" fill="none"/></g><rect width="357" height="64" transform="translate(871 578)" fill="#e4e4e4"/><rect width="357" height="64" transform="translate(871 652)" fill="#e4e4e4"/><circle cx="8" cy="8" r="8" transform="translate(1042 732)" fill="#e4e4e4"/><circle cx="8" cy="8" r="8" transform="translate(1014 732)" fill="#e4e4e4"/><circle cx="8" cy="8" r="8" transform="translate(1070 732)" fill="#e4e4e4"/><rect width="317" height="14" rx="6" transform="translate(901 485)" fill="#e4e4e4"/><rect width="338" height="42" rx="6" transform="translate(880 510)" fill="#e4e4e4"/><circle cx="7" cy="7" r="7" transform="translate(880 485)" fill="#e4e4e4"/></g></svg>